<svg width="21" height="20" viewBox="0 0 21 20" fill="none" xmlns="http://www.w3.org/2000/svg">
<path d="M19.2308 9.375C19.0972 9.37416 18.9672 9.33264 18.859 9.25625L10.2564 3.26875L1.65384 9.25625C1.51583 9.33594 1.35219 9.36229 1.19523 9.3301C1.03826 9.29791 0.899379 9.20951 0.805996 9.08235C0.712613 8.9552 0.671515 8.79853 0.690817 8.64328C0.710119 8.48802 0.788416 8.34547 0.910253 8.24375L9.88461 1.99375C9.99318 1.91838 10.1231 1.87788 10.2564 1.87788C10.3897 1.87788 10.5196 1.91838 10.6282 1.99375L19.6026 8.24375C19.712 8.321 19.7936 8.42999 19.8357 8.55516C19.8779 8.68033 19.8783 8.81528 19.8371 8.94073C19.7959 9.06619 19.715 9.17573 19.6062 9.25372C19.4973 9.33171 19.3659 9.37416 19.2308 9.375Z" fill="#C78F7E"/>
<path d="M3.20511 5.625C3.0351 5.625 2.87205 5.55915 2.75184 5.44194C2.63162 5.32473 2.56409 5.16576 2.56409 5V2.5C2.56409 2.33424 2.63162 2.17527 2.75184 2.05806C2.87205 1.94085 3.0351 1.875 3.20511 1.875H5.76922C5.93923 1.875 6.10227 1.94085 6.22249 2.05806C6.3427 2.17527 6.41024 2.33424 6.41024 2.5C6.41024 2.66576 6.3427 2.82473 6.22249 2.94194C6.10227 3.05915 5.93923 3.125 5.76922 3.125H3.84614V5C3.84614 5.16576 3.7786 5.32473 3.65839 5.44194C3.53817 5.55915 3.37512 5.625 3.20511 5.625Z" fill="#C78F7E"/>
<path d="M16.0256 18.125H12.8205C12.6505 18.125 12.4874 18.0592 12.3672 17.9419C12.247 17.8247 12.1795 17.6658 12.1795 17.5V13.125H8.33332V17.5C8.33332 17.6658 8.26578 17.8247 8.14557 17.9419C8.02535 18.0592 7.8623 18.125 7.69229 18.125H4.48716C3.97713 18.125 3.48799 17.9275 3.12734 17.5758C2.7667 17.2242 2.56409 16.7473 2.56409 16.25V10C2.56409 9.83424 2.63162 9.67527 2.75184 9.55806C2.87205 9.44085 3.0351 9.375 3.20511 9.375C3.37512 9.375 3.53817 9.44085 3.65839 9.55806C3.7786 9.67527 3.84614 9.83424 3.84614 10V16.25C3.84614 16.4158 3.91367 16.5747 4.03389 16.6919C4.15411 16.8092 4.31715 16.875 4.48716 16.875H7.05127V12.5C7.05127 12.3342 7.1188 12.1753 7.23902 12.0581C7.35923 11.9408 7.52228 11.875 7.69229 11.875H12.8205C12.9905 11.875 13.1536 11.9408 13.2738 12.0581C13.394 12.1753 13.4615 12.3342 13.4615 12.5V16.875H16.0256C16.1956 16.875 16.3587 16.8092 16.4789 16.6919C16.5991 16.5747 16.6667 16.4158 16.6667 16.25V10C16.6667 9.83424 16.7342 9.67527 16.8544 9.55806C16.9746 9.44085 17.1377 9.375 17.3077 9.375C17.4777 9.375 17.6407 9.44085 17.761 9.55806C17.8812 9.67527 17.9487 9.83424 17.9487 10V16.25C17.9487 16.7473 17.7461 17.2242 17.3854 17.5758C17.0248 17.9275 16.5357 18.125 16.0256 18.125Z" fill="#C78F7E"/>
</svg>
