<svg width="20" height="20" viewBox="0 0 20 20" fill="none" xmlns="http://www.w3.org/2000/svg">
<g opacity="0.7" clip-path="url(#clip0_48_324)">
<path d="M8.81247 0.491993L0.492173 8.8113C-0.164058 9.46745 -0.164058 10.5316 0.492173 11.1878C1.1484 11.8439 2.21271 11.8439 2.86894 11.1878L10 4.0575L17.1311 11.1878C17.7873 11.8439 18.8516 11.8439 19.5078 11.1878C20.1641 10.5316 20.1641 9.46745 19.5078 8.8113L11.1876 0.491993C10.533 -0.164162 9.4687 -0.164162 8.81247 0.491993ZM8.30864 10.495L1.34662 17.0998C0.647938 17.7635 0.647938 18.8385 1.34662 19.5021C2.04531 20.1658 3.17873 20.1658 3.87827 19.5021L9.57446 14.098L15.2706 19.5021C15.9694 20.1658 17.1036 20.1658 17.8023 19.5021C18.501 18.8385 18.501 17.7635 17.8023 17.0998L10.8403 10.495C10.1416 9.83133 9.00817 9.83133 8.30864 10.495Z" fill="#C78F7E"/>
</g>
<defs>
<clipPath id="clip0_48_324">
<rect width="20" height="20" fill="white" transform="translate(0 20) rotate(-90)"/>
</clipPath>
</defs>
</svg>
