<svg width="20" height="20" viewBox="0 0 20 20" fill="none" xmlns="http://www.w3.org/2000/svg">
<g opacity="0.7" clip-path="url(#clip0_48_301)">
<path d="M11.1875 19.508L19.5078 11.1887C20.1641 10.5325 20.1641 9.46837 19.5078 8.81221C18.8516 8.15606 17.7873 8.15606 17.1311 8.81221L9.99998 15.9425L2.86894 8.81221C2.2127 8.15606 1.1484 8.15606 0.492171 8.81221C-0.164059 9.46837 -0.164059 10.5325 0.492171 11.1887L8.81243 19.508C9.46703 20.1642 10.5313 20.1642 11.1875 19.508ZM11.6914 9.505L18.6534 2.90018C19.3521 2.23651 19.3521 1.16155 18.6534 0.497875C17.9547 -0.165796 16.8213 -0.165796 16.1217 0.497875L10.4255 5.90198L4.72935 0.497875C4.03063 -0.165796 2.89642 -0.165796 2.1977 0.497875C1.49899 1.16155 1.49899 2.23651 2.1977 2.90018L9.15972 9.505C9.8584 10.1687 10.9918 10.1687 11.6914 9.505Z" fill="#909EA1"/>
</g>
<defs>
<clipPath id="clip0_48_301">
<rect width="20" height="20" fill="white" transform="translate(20) rotate(90)"/>
</clipPath>
</defs>
</svg>
