<svg width="20" height="20" viewBox="0 0 20 20" fill="none" xmlns="http://www.w3.org/2000/svg">
<path d="M5.16667 2.03333L15.0833 11.95L16.85 10.1833L18.025 11.3583L15.9667 13.4167L18.6167 16.0667C18.9417 16.3917 18.9417 16.9167 18.6167 17.2417L18.025 17.8333C17.7 18.1583 17.175 18.1583 16.85 17.8333L14.1667 15.1917L12.1333 17.25L10.9583 16.075L12.725 14.3083L2.80834 4.39166V2.03333H5.16667ZM13.2417 8.33333L17.1917 4.38333V2.03333H14.8333L10.8833 5.98333L13.2417 8.33333ZM9.11667 12.5L6.75834 10.1083L4.91667 11.95L3.15 10.1833L1.975 11.3583L4.03334 13.4167L1.38334 16.075C1.05834 16.4 1.05834 16.925 1.38334 17.25L1.975 17.8417C2.3 18.1667 2.825 18.1667 3.15 17.8417L5.83334 15.1917L7.86667 17.25L9.04167 16.075L7.275 14.3083L9.11667 12.5Z" fill="#C78F7E"/>
<path d="M5.16667 2.03333L15.0833 11.95L16.85 10.1833L18.025 11.3583L15.9667 13.4167L18.6167 16.0667C18.9417 16.3917 18.9417 16.9167 18.6167 17.2417L18.025 17.8333C17.7 18.1583 17.175 18.1583 16.85 17.8333L14.1667 15.1917L12.1333 17.25L10.9583 16.075L12.725 14.3083L2.80834 4.39166V2.03333H5.16667ZM13.2417 8.33333L17.1917 4.38333V2.03333H14.8333L10.8833 5.98333L13.2417 8.33333ZM9.11667 12.5L6.75834 10.1083L4.91667 11.95L3.15 10.1833L1.975 11.3583L4.03334 13.4167L1.38334 16.075C1.05834 16.4 1.05834 16.925 1.38334 17.25L1.975 17.8417C2.3 18.1667 2.825 18.1667 3.15 17.8417L5.83334 15.1917L7.86667 17.25L9.04167 16.075L7.275 14.3083L9.11667 12.5Z" fill="#C78F7E"/>
</svg>
