<svg width="20" height="20" viewBox="0 0 20 20" fill="none" xmlns="http://www.w3.org/2000/svg">
<g clip-path="url(#clip0_42_150)">
<path d="M17.248 16.7708L16.7767 17.2421L14.7728 15.2381L14.4192 14.8846L14.0657 15.2381L12.3567 16.9471L11.8854 16.4757L12.7104 15.6501L13.0638 15.2965L12.7102 14.9431L10.3527 12.5864L9.99915 12.233L9.64566 12.5864L7.28899 14.9431L6.93544 15.2967L7.28899 15.6502L8.1146 16.4758L7.64338 16.9471L5.93443 15.2381L5.58088 14.8846L5.22732 15.2381L3.22338 17.2421L2.75209 16.7708L4.75616 14.766L5.10966 14.4124L4.75603 14.0589L3.04722 12.3508L3.5185 11.8795L4.34328 12.7037L4.6969 13.057L5.05033 12.7035L7.40616 10.3468L7.75959 9.99327L7.4061 9.63978L3.00237 5.23605L3.00047 3.00042L5.24774 3.00232L9.64562 7.40102L9.99915 7.75461L10.3527 7.40109L14.7544 3.00018L17.0003 3.00208L17.0016 5.23132L12.5924 9.63975L12.2388 9.99324L12.5923 10.3468L14.9489 12.7043L15.3024 13.0579L15.656 12.7045L16.4816 11.8795L16.953 12.3509L15.2448 14.0599L14.8914 14.4133L15.2448 14.7668L17.248 16.7708ZM8.23088 10.6717H8.02372L7.87726 10.8182L5.52143 13.1748L5.16775 13.5286L5.52174 13.8821L6.11174 14.4713L6.46536 14.8244L6.81866 14.471L9.17449 12.1143L9.52792 11.7608L9.17443 11.4073L8.58526 10.8181L8.43882 10.6717H8.23171H8.23088ZM16.3342 4.1675V3.6675H15.8342H15.2367H15.0296L14.8832 3.81391L10.8249 7.87141L10.4715 8.22471L10.8246 8.5783L11.4129 9.16747L11.7664 9.52145L12.1202 9.16779L16.1877 5.10196L16.3342 4.9555V4.74833V4.1675ZM4.16824 3.6675L3.66754 3.6668V4.1675V4.75083V4.95794L3.81399 5.10439L13.1815 14.4719L13.535 14.8254L13.8886 14.4719L14.4778 13.8827L14.8313 13.5292L14.4778 13.1756L5.11693 3.81478L4.97077 3.66862L4.76408 3.66833L4.16824 3.6675Z" stroke="#C78F7E"/>
</g>
<defs>
<clipPath id="clip0_42_150">
<rect width="20" height="20" fill="white"/>
</clipPath>
</defs>
</svg>
