<svg width="20" height="20" viewBox="0 0 20 20" fill="none" xmlns="http://www.w3.org/2000/svg">
<path d="M10.1501 9.91428C9.33915 9.91428 8.54645 9.67382 7.87221 9.22331C7.19797 8.77279 6.67246 8.13246 6.36214 7.38328C6.05183 6.63411 5.97063 5.80973 6.12883 5.01441C6.28703 4.21909 6.67752 3.48854 7.25091 2.91514C7.82431 2.34175 8.55486 1.95126 9.35018 1.79306C10.1455 1.63486 10.9699 1.71606 11.7191 2.02637C12.4682 2.33669 13.1086 2.8622 13.5591 3.53644C14.0096 4.21068 14.2501 5.00338 14.2501 5.81428C14.2501 6.90167 13.8181 7.94452 13.0492 8.71342C12.2803 9.48232 11.2374 9.91428 10.1501 9.91428ZM10.1501 2.73928C9.54187 2.73928 8.94735 2.91963 8.44167 3.25751C7.93599 3.5954 7.54186 4.07565 7.30912 4.63753C7.07638 5.19941 7.01549 5.81769 7.13414 6.41418C7.25279 7.01068 7.54565 7.55859 7.9757 7.98864C8.40574 8.41868 8.95366 8.71155 9.55015 8.8302C10.1466 8.94885 10.7649 8.88795 11.3268 8.65521C11.8887 8.42247 12.3689 8.02834 12.7068 7.52266C13.0447 7.01698 13.2251 6.42246 13.2251 5.81428C13.2251 4.99874 12.9011 4.2166 12.3244 3.63993C11.7477 3.06325 10.9656 2.73928 10.1501 2.73928Z" fill="#C78F7E"/>
<path d="M13.7375 17.0893H6.5625C5.88288 17.0893 5.2311 16.8193 4.75054 16.3388C4.26998 15.8582 4 15.2064 4 14.5268V12.4768C4.00002 12.3879 4.02318 12.3005 4.06721 12.2232C4.11124 12.1459 4.17462 12.0814 4.25112 12.0361L6.81363 10.4986C6.92924 10.4463 7.06013 10.4388 7.18096 10.4775C7.30179 10.5162 7.40398 10.5983 7.46775 10.708C7.53152 10.8177 7.55234 10.9471 7.52618 11.0713C7.50002 11.1954 7.42873 11.3054 7.32613 11.3801L5.025 12.7689V14.5268C5.025 14.9346 5.18699 15.3257 5.47532 15.614C5.76366 15.9023 6.15473 16.0643 6.5625 16.0643H13.7375C14.1453 16.0643 14.5363 15.9023 14.8247 15.614C15.113 15.3257 15.275 14.9346 15.275 14.5268V12.7689L12.9636 11.3801C12.8983 11.3505 12.8399 11.3076 12.7921 11.2541C12.7444 11.2006 12.7085 11.1376 12.6866 11.0693C12.6647 11.001 12.6574 10.9289 12.6652 10.8576C12.673 10.7863 12.6956 10.7174 12.7316 10.6554C12.7677 10.5935 12.8163 10.5397 12.8744 10.4977C12.9326 10.4557 12.9988 10.4263 13.069 10.4116C13.1392 10.3968 13.2117 10.3969 13.2818 10.4119C13.3519 10.4268 13.4181 10.4564 13.4761 10.4986L16.0386 12.0361C16.117 12.0801 16.1825 12.1441 16.2284 12.2214C16.2742 12.2988 16.2989 12.3869 16.3 12.4768V14.5268C16.3 15.2064 16.03 15.8582 15.5495 16.3388C15.0689 16.8193 14.4171 17.0893 13.7375 17.0893Z" fill="#C78F7E"/>
</svg>
