<svg width="21" height="20" viewBox="0 0 21 20" fill="none" xmlns="http://www.w3.org/2000/svg">
<path d="M10.7436 10.625C9.7293 10.625 8.73781 10.3318 7.89449 9.78235C7.05116 9.23294 6.39386 8.45205 6.00572 7.53842C5.61758 6.62479 5.51602 5.61946 5.7139 4.64955C5.91177 3.67965 6.40018 2.78873 7.11738 2.08947C7.83457 1.39021 8.74833 0.914002 9.7431 0.721076C10.7379 0.52815 11.769 0.627166 12.706 1.0056C13.6431 1.38404 14.444 2.02491 15.0075 2.84715C15.571 3.6694 15.8718 4.6361 15.8718 5.625C15.8718 6.95108 15.3315 8.22285 14.3698 9.16054C13.408 10.0982 12.1036 10.625 10.7436 10.625Z" fill="#C78F7E"/>
<path d="M6.2564 19.375H15.2308C16.0808 19.375 16.896 19.0458 17.4971 18.4597C18.0982 17.8737 18.4359 17.0788 18.4359 16.25V13.75C18.4346 13.6403 18.4037 13.5329 18.3463 13.4386C18.2889 13.3442 18.207 13.2663 18.109 13.2125L14.9038 11.3375H6.5705L3.36537 13.2125C3.26968 13.2678 3.1904 13.3465 3.13533 13.4407C3.08026 13.535 3.05129 13.6416 3.05127 13.75V16.25C3.05127 17.0788 3.38895 17.8737 3.99003 18.4597C4.59111 19.0458 5.40634 19.375 6.2564 19.375Z" fill="#C78F7E"/>
</svg>
